<svg width="92" height="92" viewBox="0 0 92 92" fill="none" xmlns="http://www.w3.org/2000/svg">
<g filter="url(#filter0_d_855_1272)">
<path d="M46.3515 70.7767C59.841 70.7767 70.7764 59.8413 70.7764 46.3518C70.7764 32.8623 59.841 21.9269 46.3515 21.9269C32.862 21.9269 21.9266 32.8623 21.9266 46.3518C21.9266 59.8413 32.862 70.7767 46.3515 70.7767Z" fill="#15151E" stroke="url(#paint0_linear_855_1272)" stroke-width="1.82642"/>
<path d="M45.5517 42.4199C45.5517 42.4199 45.5181 43.3179 45.9223 44.679C46.3265 46.04 46.5197 46.6888 46.5197 46.6888C46.5197 46.6888 49.9858 47.0789 51.2432 47.2815C49.9447 51.6288 46.5085 55.4766 46.5085 55.4766L42.9688 59.1657C44.8665 61.1223 46.3816 62.3321 46.3816 62.3321C46.3816 62.3321 54.9827 55.4766 56.8861 47.9508C57.2277 46.6001 57.4434 45.2829 57.5722 44.0255C56.831 43.7968 55.6996 43.4384 54.9248 43.2862C51.287 42.5702 45.5517 42.4199 45.5517 42.4199Z" fill="url(#paint1_linear_855_1272)"/>
<path d="M46.3817 32.9272C39.6233 32.9272 35.8772 33.8589 35.8772 33.8589C35.8772 33.8589 33.9738 40.425 35.8772 47.9517C36.5605 50.6523 38.1054 53.2651 39.8053 55.5064L43.6541 51.4952C42.7869 50.0259 41.9542 48.2803 41.5388 46.4843C40.4597 41.8206 40.7855 38.1454 40.7855 38.1454C40.7855 38.1454 43.9052 37.7748 46.5003 37.7748C50.2463 37.856 53.942 38.2584 57.2493 38.952C57.3903 38.9818 57.5313 39.0145 57.6722 39.0472C57.4808 35.9181 56.8853 33.8598 56.8853 33.8598C56.8853 33.8598 53.1392 32.9282 46.3808 32.9282L46.3817 32.9272Z" fill="url(#paint2_linear_855_1272)"/>
</g>
<defs>
<filter id="filter0_d_855_1272" x="0.719603" y="0.720091" width="91.2634" height="91.2634" filterUnits="userSpaceOnUse" color-interpolation-filters="sRGB">
<feFlood flood-opacity="0" result="BackgroundImageFix"/>
<feColorMatrix in="SourceAlpha" type="matrix" values="0 0 0 0 0 0 0 0 0 0 0 0 0 0 0 0 0 0 127 0" result="hardAlpha"/>
<feOffset/>
<feGaussianBlur stdDeviation="10.1468"/>
<feComposite in2="hardAlpha" operator="out"/>
<feColorMatrix type="matrix" values="0 0 0 0 0.278431 0 0 0 0 0.917647 0 0 0 0 0.337255 0 0 0 0.15 0"/>
<feBlend mode="normal" in2="BackgroundImageFix" result="effect1_dropShadow_855_1272"/>
<feBlend mode="normal" in="SourceGraphic" in2="effect1_dropShadow_855_1272" result="shape"/>
</filter>
<linearGradient id="paint0_linear_855_1272" x1="28.9162" y1="29.0213" x2="64.7802" y2="62.3236" gradientUnits="userSpaceOnUse">
<stop stop-color="#47EA56"/>
<stop offset="1" stop-color="#60FFE2"/>
</linearGradient>
<linearGradient id="paint1_linear_855_1272" x1="44.8558" y1="45.0374" x2="59.0256" y2="54.6871" gradientUnits="userSpaceOnUse">
<stop stop-color="#47EA56"/>
<stop offset="1" stop-color="#60FFE2"/>
</linearGradient>
<linearGradient id="paint2_linear_855_1272" x1="37.9569" y1="35.8953" x2="55.1811" y2="51.9329" gradientUnits="userSpaceOnUse">
<stop stop-color="#47EA56"/>
<stop offset="1" stop-color="#60FFE2"/>
</linearGradient>
</defs>
</svg>
